{"title":"Naruto Episodes 114-End  Operation Recover Sasuke Finale MP4 OOT","uid":7927754,"size":4754894768,"categoryP":"video","categoryS":"tv_shows","magnet":"?xt=urn:btih:dff2e911a3565cff6fdc6713bbb6453387ce88e2&amp;dn=Naruto+Episodes+114-End++Operation+Recover+Sasuke+Finale+MP4+OOT&amp;tr=udp%3A%2F%2Ftracker.openbittorrent.com%3A80&amp;tr=udp%3A%2F%2Fopen.demonii.com%3A1337&amp;tr=udp%3A%2F%2Ftracker.coppersurfer.tk%3A6969&amp;tr=udp%3A%2F%2Fexodus.desync.com%3A6969","seeders":0,"leechers":0,"uploader":"OOTR","files":1,"time":1355624469,"description":"Naruto Episodes 114-220, minus filler (137-140, 142-219)\n\nEdited to omit intros/outros and promote continuity.\n\nAlso edited ending to follow Manga ending, #238.\n\nPlease SEED and enjoy! Leave a comment if you like.\n\nFormat                                   : MPEG-4\nCodec ID                                 : M4V \nFile size                                : 4.43 GiB\nDuration                                 : 7h 19mn\nOverall bit rate mode                    : Variable\nOverall bit rate                         : 1 443 Kbps\nEncoded date                             : UTC 2012-12-16 00:57:05\n\nVideo\nID                                       : 1\nFormat                                   : AVC\nFormat/Info                              : Advanced Video Codec\nFormat profile                           : &lt;a class=&quot;__cf_email__&quot; href=&quot;/cdn-cgi/l/email-protection&quot; data-cfemail=&quot;ffbd9e8c9a9396919abfb3ccd1cf&quot;&gt;[email&amp;#160;protected]&lt;/a&gt;&lt;script cf-hash='f9e31' type=&quot;text/javascript&quot;&gt;\n/* &lt;![CDATA[ */!function(){try{var t=&quot;currentScript&quot;in document?document.currentScript:function(){for(var t=document.getElementsByTagName(&quot;script&quot;),e=t.length;e--;)if(t[e].getAttribute(&quot;cf-hash&quot;))return t[e]}();if(t&amp;&amp;t.previousSibling){var e,r,n,i,c=t.previousSibling,a=c.getAttribute(&quot;data-cfemail&quot;);if(a){for(e=&quot;&quot;,r=parseInt(a.substr(0,2),16),n=2;a.length-n;n+=2)i=parseInt(a.substr(n,2),16)^r,e+=String.fromCharCode(i);e=document.createTextNode(e),c.parentNode.replaceChild(e,c)}}}catch(u){}}();/* ]]&gt; */&lt;/script&gt;\nFormat settings, CABAC                   : No\nFormat settings, ReFrames                : 2 frames\nCodec ID                                 : avc1\nCodec ID/Info                            : Advanced Video Coding\nDuration                                 : 7h 19mn\nSource duration                          : 7h 19mn\nBit rate mode                            : Variable\nBit rate                                 : 1 315 Kbps\nWidth                                    : 640 pixels\nHeight                                   : 480 pixels\nDisplay aspect ratio                     : 4:3\nFrame rate mode                          : Variable\nFrame rate                               : 23.976 fps\nMinimum frame rate                       : 23.976 fps\nMaximum frame rate                       : 24.000 fps\nStandard                                 : NTSC\nColor space                              : YUV\nChroma subsampling                       : 4:2:0\nBit depth                                : 8 bits\nScan type                                : Progressive\nBits/(Pixel*Frame)                       : 0.179\nStream size                              : 4.04 GiB (91%)\nSource stream size                       : 4.04 GiB (91%)\nLanguage                                 : English\nEncoded date                             : UTC 2012-12-16 00:57:05\n\nAudio\nID                                       : 2\nFormat                                   : AAC\nFormat/Info                              : Advanced Audio Codec\nFormat profile                           : LC\nCodec ID                                 : 40\nDuration                                 : 7h 19mn\nSource duration                          : 7h 19mn\nBit rate mode                            : Variable\nBit rate                                 : 126 Kbps\nMaximum bit rate                         : 210 Kbps\nChannel(s)                               : 2 channels\nChannel positions                        : Front: L R\nSampling rate                            : 44.1 KHz\nCompression mode                         : Lossy\nStream size                              : 395 MiB (9%)","torrent":{"xt":"urn:btih:dff2e911a3565cff6fdc6713bbb6453387ce88e2","amp;dn":"Naruto+Episodes+114-End++Operation+Recover+Sasuke+Finale+MP4+OOT","amp;tr":["udp%3A%2F%2Ftracker.openbittorrent.com%3A80","udp%3A%2F%2Fopen.demonii.com%3A1337","udp%3A%2F%2Ftracker.coppersurfer.tk%3A6969","udp%3A%2F%2Fexodus.desync.com%3A6969"],"infoHash":"dff2e911a3565cff6fdc6713bbb6453387ce88e2","infoHashBuffer":{"type":"Buffer","data":[223,242,233,17,163,86,92,255,111,220,103,19,187,182,69,51,135,206,136,226]},"announce":[],"urlList":[]}}